<?xml version="1.0" encoding="UTF-8"?>
<svg id="Laag_1" data-name="Laag 1" xmlns="http://www.w3.org/2000/svg" viewBox="0 0 116.71 65.5">
  <defs>
    <style>
      .cls-1 {
        isolation: isolate;
      }

      .cls-2 {
        fill: #5f9ed6;
        stroke-width: 0px;
      }
    </style>
  </defs>
  <g class="cls-1">
    <g class="cls-1">
      <path class="cls-2" d="m7.35,34.73c-1.23-.2-2.92-.55-5.07-1.07v-.23c.45-.61.76-1.24.91-1.91.15-.67.23-1.7.23-3.09V3.87L0,2.73v-.68c1.06-.46,2.29-.88,3.68-1.27,1.39-.39,2.59-.65,3.59-.77h.68c-.3,4.82-.45,9.51-.45,14.06,1.82-1.49,3.93-2.23,6.32-2.23,1.67,0,3.2.48,4.59,1.43,1.39.96,2.5,2.26,3.32,3.91.82,1.65,1.23,3.47,1.23,5.44,0,2.67-.52,4.94-1.55,6.8-1.03,1.87-2.41,3.27-4.14,4.21-1.73.94-3.62,1.41-5.69,1.41-1.61,0-3.02-.1-4.25-.3Zm1.89-1.5c.79.44,1.68.66,2.68.66,1.21,0,2.31-.39,3.3-1.18.98-.79,1.77-1.93,2.34-3.41.58-1.49.86-3.26.86-5.32s-.29-3.87-.86-5.44c-.58-1.56-1.36-2.77-2.34-3.62-.99-.85-2.09-1.27-3.3-1.27-1.43,0-2.9.47-4.41,1.41v16.29c.36.82.94,1.45,1.73,1.89Z"/>
    </g>
    <g class="cls-1">
      <path class="cls-2" d="m32.86,33.59c-1.68-.96-3.03-2.3-4.03-4.03-1-1.73-1.5-3.7-1.5-5.91s.46-4.27,1.39-6.07c.92-1.8,2.21-3.21,3.84-4.23s3.5-1.52,5.6-1.52c1.97,0,3.79.48,5.46,1.43,1.67.96,2.99,2.3,3.98,4.03.98,1.73,1.48,3.7,1.48,5.91s-.45,4.27-1.36,6.07c-.91,1.8-2.18,3.21-3.8,4.23-1.62,1.02-3.48,1.52-5.57,1.52-1.97,0-3.8-.48-5.48-1.43Zm0-5.5c.65,1.71,1.53,3.07,2.64,4.07,1.11,1,2.31,1.5,3.62,1.5,1.06,0,2-.39,2.82-1.18.82-.79,1.46-1.89,1.91-3.32.45-1.43.68-3.03.68-4.82,0-2.03-.32-3.9-.96-5.59s-1.51-3.04-2.62-4.03c-1.11-.99-2.33-1.48-3.66-1.48-1.06,0-2,.39-2.82,1.18-.82.79-1.46,1.89-1.91,3.3s-.68,3.01-.68,4.8c0,2,.33,3.86.98,5.57Z"/>
    </g>
    <g class="cls-1">
      <path class="cls-2" d="m55.97,33.78c-.96-.83-1.43-1.99-1.43-3.48V13.42h-3.64v-.68l3.64-1.87,3.55-4.05h.55v5.46h7.19v1.14h-7.19v15.69c0,2.43.99,3.64,2.96,3.64,1.36,0,2.8-.17,4.32-.5l.46.46c-2,1.55-4.08,2.32-6.23,2.32-1.82,0-3.21-.42-4.16-1.25Z"/>
    </g>
    <g class="cls-1">
      <path class="cls-2" d="m72.53,33.59c-1.5-.96-2.68-2.25-3.55-3.89-.86-1.64-1.3-3.46-1.3-5.46,0-2.46.45-4.62,1.34-6.5.89-1.88,2.12-3.34,3.66-4.37,1.55-1.03,3.26-1.55,5.14-1.55,2.43,0,4.34.64,5.73,1.93,1.39,1.29,2.09,3.15,2.09,5.57,0,.3-.05.6-.14.89-.09.29-.21.51-.36.66h-13.01c-.03.33-.05.85-.05,1.55,0,1.88.33,3.53.98,4.96.65,1.43,1.55,2.52,2.68,3.3,1.14.77,2.4,1.16,3.8,1.16,1.27,0,2.42-.22,3.43-.66,1.02-.44,1.99-1.1,2.93-1.98l.46.46c-1.12,1.7-2.4,3.02-3.84,3.96-1.44.94-3.1,1.41-4.98,1.41s-3.53-.48-5.03-1.43Zm7.44-13.85c.39,0,.71-.11.96-.32.24-.21.36-.48.36-.82,0-1.73-.36-3.1-1.07-4.12-.71-1.02-1.68-1.52-2.89-1.52-1.3,0-2.4.6-3.3,1.8s-1.48,2.86-1.75,4.98h7.69Z"/>
      <path class="cls-2" d="m89.52,33.43h1.59c.42,0,.76-.12,1-.36.24-.24.36-.58.36-1v-15.92l-3.41-1.59v-.68c1.03-.55,2.08-.99,3.14-1.34,1.06-.35,1.99-.58,2.77-.71h.46l1.09,3.87h.04c1.18-.73,2.67-1.55,4.46-2.48,1.79-.92,2.93-1.39,3.41-1.39.3,0,.6.21.89.64.29.43.43.86.43,1.32,0,.79-.23,1.43-.68,1.93-.46.5-1.12.75-2,.75h-5.87c-.18,0-.33.05-.46.16-.12.11-.18.25-.18.43v16.38l4.78-.23-.45,1.36h-11.83l.46-1.14Z"/>
    </g>
  </g>
  <g class="cls-1">
    <g class="cls-1">
      <path class="cls-2" d="m28.23,63.9l14.56-20.29-5.41.27c-1.27.06-2.34.36-3.21.89-.86.53-1.6,1.21-2.21,2.02-.61.82-1.33,1.99-2.18,3.5h-.68l1.91-8.46c1.33.33,2.43.57,3.3.71.86.14,1.93.21,3.21.21h9.6l.46,1.14-14.56,20.43,5.5-.32c1.97-.12,3.62-.79,4.94-2,1.32-1.21,2.48-3.14,3.48-5.78h.68l-1.55,8.83h-17.38l-.46-1.14Z"/>
    </g>
    <g class="cls-1">
      <path class="cls-2" d="m57.14,64.06c-1.68-.96-3.03-2.3-4.03-4.03-1-1.73-1.5-3.7-1.5-5.91s.46-4.27,1.39-6.07c.92-1.8,2.21-3.21,3.84-4.23s3.5-1.52,5.59-1.52c1.97,0,3.79.48,5.46,1.43,1.67.96,3,2.3,3.98,4.03s1.48,3.7,1.48,5.91-.46,4.27-1.36,6.07c-.91,1.8-2.18,3.21-3.8,4.23-1.62,1.02-3.48,1.52-5.57,1.52-1.97,0-3.8-.48-5.48-1.43Zm0-5.5c.65,1.71,1.53,3.07,2.64,4.07,1.11,1,2.31,1.5,3.62,1.5,1.06,0,2-.39,2.82-1.18.82-.79,1.46-1.89,1.91-3.32s.68-3.03.68-4.82c0-2.03-.32-3.9-.96-5.59-.64-1.7-1.51-3.04-2.62-4.03-1.11-.99-2.33-1.48-3.66-1.48-1.06,0-2,.39-2.82,1.18-.82.79-1.46,1.89-1.91,3.3s-.68,3.01-.68,4.8c0,2,.33,3.86.98,5.57Z"/>
      <path class="cls-2" d="m80.5,63.59c-1.15-1.27-1.73-3-1.73-5.19v-12.74l-2.96-1.59v-.68c2.52-.73,4.71-1.11,6.6-1.14h.46v15.24c0,1.52.33,2.7,1,3.55.67.85,1.67,1.27,3,1.27.82,0,1.58-.11,2.3-.34.71-.23,1.64-.6,2.8-1.12v-15.15l-2.96-1.59v-.68c2.18-.64,4.38-1.02,6.6-1.14h.46v19.79l3.18.46v.68c-.88.73-1.87,1.29-2.98,1.68s-2.15.59-3.12.59h-.45l-.68-3.78h-.05c-2,2.52-4.31,3.78-6.91,3.78-1.88,0-3.4-.64-4.55-1.91Z"/>
      <path class="cls-2" d="m106.31,64.25c-.96-.83-1.43-1.99-1.43-3.48v-16.88h-3.64v-.68l3.64-1.87,3.55-4.05h.55v5.46h7.19v1.14h-7.19v15.69c0,2.43.99,3.64,2.96,3.64,1.37,0,2.8-.17,4.32-.5l.45.46c-2,1.55-4.08,2.32-6.23,2.32-1.82,0-3.21-.42-4.16-1.25Z"/>
    </g>
  </g>
  <path class="cls-2" d="m22.67,52.59v2.43h-4.85c-1.09,0-2-.03-2.73-.09s-1.27-.11-1.64-.15c.04.36.09.91.15,1.64s.09,1.64.09,2.73v4.85h-2.43v-4.85c0-1.09.03-2,.09-2.73s.11-1.27.15-1.64c-.36.04-.91.09-1.64.15s-1.64.09-2.73.09H2.28v-2.43h4.85c1.09,0,2,.03,2.73.09s1.27.11,1.64.15c-.04-.36-.09-.91-.15-1.64s-.09-1.64-.09-2.73v-4.85h2.43v4.85c0,1.09-.03,2-.09,2.73s-.11,1.27-.15,1.64c.36-.04.91-.09,1.64-.15s1.64-.09,2.73-.09h4.85Z"/>
</svg>